<?xml version="1.0" encoding="iso-8859-1"?>
<!-- Generator: Adobe Illustrator 16.0.4, SVG Export Plug-In . SVG Version: 6.00 Build 0)  -->
<!DOCTYPE svg PUBLIC "-//W3C//DTD SVG 1.1//EN" "http://www.w3.org/Graphics/SVG/1.1/DTD/svg11.dtd">
<svg version="1.1" id="Capa_1" xmlns="http://www.w3.org/2000/svg" xmlns:xlink="http://www.w3.org/1999/xlink" x="0px" y="0px"
	 width="64px" height="64px" viewBox="0 0 64 64" style="enable-background:new 0 0 64 64;" xml:space="preserve">
<path d="M25.82,39.023c0.384-1.295,1.061-3.135,2.127-4.643c1.243-1.757,3.346-1.688,4.874-1.23
	c0.529,0.158,1.334,0.141,1.859-0.025c1.394-0.439,3.266-0.473,4.377,1.277c0.942,1.48,1.547,3.285,1.895,4.574
	c0.143,0.532,0.619,0.734,1.074,0.42c1.507-1.043,3.798-2.91,4.771-5.149c0.221-0.506,0.322-1.394,0.322-1.945v-3.235
	c0-0.553-0.182-1.409-0.401-1.916c-0.739-1.713-1.379-3.313-1.851-4.698c-2.426-7.127-6.545-8.623-9.572-8.623
	c-1.288,0-2.17,0.291-2.179,0.294c-0.104,0.035-0.218,0.035-0.32,0c-0.009-0.003-0.891-0.294-2.179-0.294
	c-3.028,0-7.147,1.496-9.572,8.623c-0.456,1.341-1.07,2.884-1.78,4.534c-0.219,0.508-0.4,1.364-0.4,1.917v3.39
	c0,0.554,0.114,1.438,0.354,1.935c1.117,2.315,3.802,4.232,5.476,5.258C25.166,39.773,25.664,39.555,25.82,39.023L25.82,39.023z
	 M38.794,27.313c-1.343,0-2.435-1.093-2.435-2.436c0-1.343,1.093-2.435,2.435-2.435c1.343,0,2.437,1.093,2.437,2.435
	C41.229,26.221,40.137,27.313,38.794,27.313z M38.509,19.646l0.132-0.008c1.68-0.1,4.014,1.064,4.111,1.113
	c0.247,0.123,0.348,0.424,0.225,0.671c-0.123,0.246-0.42,0.35-0.672,0.224c-0.021-0.012-2.201-1.088-3.606-1.01l-0.134,0.008
	c-1.787,0.102-3.393,0.286-3.393,1.39c0,0.276-0.224,0.5-0.5,0.5c-0.275,0-0.5-0.224-0.5-0.5
	C34.173,19.894,36.887,19.738,38.509,19.646z M27.595,27.313c-1.343,0-2.434-1.093-2.434-2.436c0-1.343,1.092-2.435,2.434-2.435
	c1.344,0,2.437,1.093,2.437,2.435C30.031,26.221,28.938,27.313,27.595,27.313z M23.449,20.751c0.099-0.05,2.426-1.213,4.112-1.113
	l0.131,0.008c1.622,0.093,4.336,0.248,4.336,2.388c0,0.276-0.224,0.5-0.5,0.5c-0.276,0-0.5-0.224-0.5-0.5
	c0-1.103-1.604-1.287-3.393-1.39l-0.133-0.008c-1.152-0.066-2.999,0.706-3.606,1.01c-0.248,0.124-0.547,0.023-0.671-0.224
	C23.102,21.175,23.202,20.875,23.449,20.751z"/>
<path d="M31.558,40.027c0.712-0.629,1.447-1.28,2.211-1.28c0.783,0,1.434,0.662,2.062,1.304c0.167,0.17,0.351,0.357,0.528,0.52
	c0.304,0.272,0.621,0.496,0.623,0.636c0.002,0.138,0.004,0.138,0.004,0s0.063-0.252,0.125-0.295
	c0.027-0.021,0.062-0.052,0.098-0.095c0.404-0.485,0.645-1.922,0.318-3.727c-0.082-0.458-0.346-1.066-1.687-1.066
	c-1.018,0-2.057,0.365-2.065,0.369c-0.109,0.039-0.229,0.039-0.336,0c-0.01-0.004-1.056-0.369-2.066-0.369
	c-1.34,0-1.604,0.608-1.687,1.066c-0.326,1.807-0.087,3.241,0.319,3.727c0.116,0.14,0.195,0.14,0.222,0.14
	C30.526,40.941,31.099,40.436,31.558,40.027z M31.278,37.166h4.658c0.275,0,0.5,0.225,0.5,0.5s-0.225,0.5-0.5,0.5h-4.658
	c-0.276,0-0.5-0.225-0.5-0.5S31.002,37.166,31.278,37.166z"/>
<path d="M33.768,43.792c1.021-0.01,5.568-0.053,8.955,0.001c0.021,0,0.045,0.001,0.065,0.001c2.303,0,3.483-1.928,4.004-3.153
	c0.216-0.51,0.328-1.392,0.328-1.943v-1.924c0-0.553-0.235-0.617-0.57-0.18c-2.067,2.705-5.288,4.484-5.471,4.584
	c-0.142,0.077-0.313,0.081-0.457,0.012c-0.146-0.07-0.248-0.207-0.274-0.366c-0.007-0.034-0.609-3.487-2.134-5.884
	c-1.317-2.072-4.062-0.516-4.177-0.447c-0.146,0.083-0.369,0.089-0.521,0.011c-0.132-0.069-3.251-1.664-4.752,0.458
	c-1.691,2.391-2.361,5.837-2.368,5.872c-0.029,0.151-0.128,0.283-0.268,0.354c-0.14,0.069-0.304,0.069-0.443,0.002
	c-0.206-0.102-3.939-1.957-6.226-4.765c-0.349-0.429-0.594-0.356-0.594,0.196v2.212c0,0,0,0.192,0,0.431
	c0,0.237,0.122,0.862,0.354,1.363c0.578,1.249,1.917,3.221,4.595,3.167C27.581,43.736,32.634,43.781,33.768,43.792z M31.372,35.021
	c0.444,0,0.885,0.058,1.267,0.129c0.541,0.104,1.396,0.104,1.938,0c0.381-0.071,0.82-0.129,1.266-0.129
	c2.027,0,2.545,1.184,2.672,1.89c0.353,1.95,0.141,3.733-0.537,4.546c-0.344,0.411-0.728,0.498-0.988,0.498
	c-0.719-0.029-1.277-0.602-1.87-1.205c-0.438-0.445-0.984-1.003-1.349-1.003c-0.385,0-1.028,0.571-1.547,1.03
	c-0.667,0.591-1.298,1.148-1.945,1.177c-0.315,0-0.696-0.088-1.038-0.497c-0.678-0.812-0.889-2.596-0.536-4.546
	C28.921,35.691,29.869,35.021,31.372,35.021z"/>
<circle cx="38.794" cy="24.878" r="1.436"/>
<circle cx="27.595" cy="24.878" r="1.436"/>
<path d="M55.282,29.769c-0.49-10.413-3.267-27.07-22.319-27.211C13.91,2.698,11.134,19.355,10.644,29.769
	c-0.49,10.418-7.6,12.135-8.09,22.308c-0.49,10.174,8.702,9.929,12.012,8.597c3.075-1.236,10.701-6.645,12.258-3.127
	c0.224,0.505,0.287,1.413,0.42,1.949c0.711,2.874,2.831,3.335,4.101,3.339c0.552,0.002,1.274-0.094,1.618-0.094
	s1.064,0.096,1.617,0.094c1.271-0.004,3.393-0.464,4.104-3.339c0.133-0.536,0.195-1.444,0.42-1.949
	c1.557-3.518,9.183,1.891,12.258,3.127c3.309,1.332,12.502,1.577,12.012-8.597C62.882,41.902,55.771,40.188,55.282,29.769z
	 M6.781,44.673c0.047-0.08,4.731-8.048,5.448-15.566c0.774-8.134,5.545-21.083,11.258-22.86c0.269-0.083,0.544,0.066,0.626,0.329
	c0.082,0.264-0.065,0.544-0.329,0.626c-5.243,1.631-9.828,14.322-10.559,22.001c-0.739,7.744-5.388,15.648-5.585,15.979
	c-0.093,0.158-0.26,0.245-0.43,0.245c-0.087,0-0.175-0.022-0.255-0.069C6.719,45.217,6.64,44.91,6.781,44.673z M55.461,59.011
	c-2.878,0-6.453-1.678-7.979-2.395c-0.285-0.134-0.491-0.231-0.601-0.272c-0.073-0.027-0.192-0.076-0.35-0.144
	c-1.084-0.459-3.962-1.679-6.949-1.679c-2.737,0-4.815,1.043-6.174,3.102c-0.093,0.141-0.249,0.225-0.417,0.225
	s-0.325-0.084-0.417-0.225c-1.358-2.059-3.443-3.102-6.198-3.102c-3.013,0-5.911,1.222-7.003,1.682
	c-0.153,0.064-0.27,0.113-0.344,0.143c-0.107,0.039-0.314,0.137-0.599,0.271c-1.526,0.717-5.103,2.395-7.98,2.395
	c-1.866,0-3.149-0.692-3.813-2.058c-1.646-3.387-0.313-6.714,0.506-8.235c0.262-0.485,0.733-1.245,0.999-1.731
	c1.969-3.601,9.42-17.408,11.955-24.855c2.755-8.092,7.773-9.301,10.52-9.301c0.519,0,0.979,0.042,1.359,0.097
	c0.546,0.078,1.412,0.078,1.958,0c0.381-0.055,0.84-0.097,1.359-0.097c2.746,0,7.764,1.209,10.52,9.301
	c0.44,1.294,1.031,2.781,1.713,4.372c0.219,0.508,0.484,0.978,0.539,1.089c0.058,0.109,0.232,0.623,0.461,1.127
	c3.261,7.225,7.797,15.624,9.27,18.316c0.266,0.484,0.738,1.244,0.998,1.732c0.809,1.514,2.113,4.819,0.479,8.186
	C58.611,58.318,57.328,59.011,55.461,59.011L55.461,59.011z M59.537,46.701c-0.874,0-3.768-1.669-8.073-20.708
	C46.982,6.188,35.678,5.998,35.454,5.998c-0.281,0-0.505-0.219-0.509-0.492c-0.004-0.276,0.215-0.503,0.49-0.508
	c0.5-0.021,12.306,0.012,17.002,20.774c3.053,13.492,5.324,17.859,6.424,19.268c0.34,0.437,0.93,0.633,1.08,0.778
	c0.084,0.082,0.14,0.201,0.151,0.336c0.025,0.275-0.222,0.518-0.495,0.544C59.578,46.7,59.559,46.701,59.537,46.701z"/>
<path d="M48.12,31.27v2.101v6.378c0,0.047-0.004,0.084-0.013,0.121c-0.012,0.05-1.172,4.924-5.316,4.925
	c-0.027,0-0.057-0.001-0.085-0.001c-2.562-0.042-5.787-0.028-7.64-0.015c-0.553,0.006-1.017,0.013-1.037,0.015
	c-0.012,0-0.023,0.001-0.035,0.001c-0.018-0.001-0.069-0.001-0.227-0.002c-0.041,0-0.074,0-0.103,0.001
	c-0.056,0-0.117,0.001-0.136,0c-0.021-0.002-0.482-0.008-1.035-0.012c-2.029-0.015-5.739-0.03-8.668,0.012
	c-0.03,0-0.061,0.001-0.092,0.001c-4.557,0-5.842-4.863-5.854-4.913c-0.011-0.04-0.016-0.082-0.016-0.123v-0.926V33.37v-2.254
	c0-0.553-0.188-0.594-0.422-0.094C13.57,39.27,8.574,48.273,8.505,48.396c-0.059,0.088-2.893,4.154-0.967,8.119
	c0.488,1.006,1.441,1.494,2.913,1.494c2.654,0,6.089-1.611,7.555-2.3c0.319-0.149,0.552-0.258,0.673-0.303
	c0.066-0.025,0.169-0.068,0.307-0.128c1.142-0.479,4.176-1.758,7.391-1.758c2.46,0,4.455,0.746,5.95,2.224
	c0.394,0.388,0.937,0.388,1.329,0c1.492-1.478,3.479-2.224,5.927-2.224c3.19,0,6.204,1.275,7.339,1.756
	c0.141,0.06,0.245,0.104,0.312,0.13c0.121,0.045,0.354,0.153,0.673,0.303c1.466,0.688,4.899,2.3,7.554,2.3
	c1.475,0,2.426-0.488,2.914-1.494c1.395-2.873,0.292-5.8-0.434-7.209c-0.252-0.49-0.723-1.254-0.986-1.738
	c-1.346-2.454-5.24-9.656-8.41-16.394C48.309,30.677,48.12,30.717,48.12,31.27L48.12,31.27z M22.633,51.9
	c-2.278,0.277-4.5,1.478-6.485,2.566c-1.702,0.934-3.112,1.707-4.256,1.707c-0.256,0-0.498-0.037-0.727-0.122
	c-0.554-0.202-0.968-0.655-1.233-1.346c-1.574-4.104,4.384-10.485,4.639-10.756c0.188-0.201,0.505-0.212,0.706-0.021
	c0.201,0.188,0.21,0.506,0.022,0.705c-0.059,0.062-5.782,6.192-4.433,9.713c0.159,0.414,0.369,0.664,0.643,0.764
	c0.831,0.308,2.446-0.582,4.158-1.521c2.266-1.243,5.083-2.765,7.977-2.751c0.276,0.004,0.497,0.23,0.493,0.508
	c-0.002,0.139-0.065,0.252-0.161,0.336C23.815,51.825,23.181,51.834,22.633,51.9z M33.936,53.843
	c-0.096,0.08-0.213,0.121-0.332,0.121c-0.11,0-0.222-0.036-0.312-0.108c-0.006-0.006-0.865-0.672-3.85-1.975
	c-3.381-1.475-9.665-5.973-9.931-6.163c-0.225-0.161-0.276-0.474-0.115-0.696c0.161-0.228,0.475-0.276,0.697-0.115
	c0.064,0.046,6.465,4.627,9.749,6.06c1.331,0.581,2.259,1.043,2.891,1.386c0.484,0.263,1.236,0.254,1.721-0.013
	c0.615-0.341,1.523-0.797,2.843-1.373c3.261-1.423,8.906-6.362,8.963-6.413c0.206-0.182,0.523-0.16,0.706,0.047
	c0.182,0.207,0.161,0.522-0.046,0.705c-0.235,0.207-5.819,5.094-9.224,6.577C34.734,53.174,33.941,53.836,33.936,53.843z
	 M54.506,56.053c-0.229,0.084-0.472,0.122-0.729,0.122c-1.145,0.001-2.553-0.772-4.256-1.707c-1.984-1.089-4.211-2.28-6.484-2.563
	c-0.549-0.068-1.184-0.077-1.342-0.219c-0.096-0.086-0.16-0.201-0.162-0.338c-0.004-0.275,0.217-0.502,0.492-0.507
	c2.865-0.013,5.711,1.509,7.977,2.751c1.714,0.939,3.333,1.824,4.159,1.521c0.272-0.1,0.483-0.35,0.644-0.764
	c1.348-3.521-4.375-9.651-4.434-9.714c-0.188-0.2-0.18-0.518,0.021-0.706c0.2-0.189,0.519-0.181,0.705,0.021
	c0.256,0.271,6.213,6.651,4.639,10.756C55.475,55.396,55.061,55.85,54.506,56.053L54.506,56.053z"/>
</svg>
